<mxfile host="Electron" agent="Mozilla/5.0 (Windows NT 10.0; Win64; x64) AppleWebKit/537.36 (KHTML, like Gecko) draw.io/26.2.2 Chrome/134.0.6998.178 Electron/35.1.2 Safari/537.36" version="26.2.2">
  <diagram name="Pagina-1" id="Og4VQImv2oLuPEbN_l8M">
    <mxGraphModel dx="2219" dy="835" grid="1" gridSize="10" guides="1" tooltips="1" connect="1" arrows="1" fold="1" page="1" pageScale="1" pageWidth="827" pageHeight="1169" math="0" shadow="0">
      <root>
        <mxCell id="0" />
        <mxCell id="1" parent="0" />
        <mxCell id="YR-cTzBqcfhOO2y_Lg_3-1" value="" style="ellipse;html=1;shape=startState;fillColor=#000000;strokeColor=#ff0000;" vertex="1" parent="1">
          <mxGeometry x="280" y="80" width="40" height="40" as="geometry" />
        </mxCell>
        <mxCell id="YR-cTzBqcfhOO2y_Lg_3-2" value="caricamento elenco attività dal database" style="edgeStyle=orthogonalEdgeStyle;html=1;verticalAlign=bottom;endArrow=open;endSize=8;strokeColor=#ff0000;" edge="1" parent="1" source="YR-cTzBqcfhOO2y_Lg_3-1" target="YR-cTzBqcfhOO2y_Lg_3-15">
          <mxGeometry relative="1" as="geometry">
            <mxPoint x="300" y="160" as="targetPoint" />
            <mxPoint as="offset" />
          </mxGeometry>
        </mxCell>
        <mxCell id="YR-cTzBqcfhOO2y_Lg_3-3" style="edgeStyle=orthogonalEdgeStyle;shape=connector;rounded=0;orthogonalLoop=1;jettySize=auto;html=1;strokeColor=#ff0000;align=center;verticalAlign=bottom;fontFamily=Helvetica;fontSize=11;fontColor=default;labelBackgroundColor=default;endArrow=open;endSize=8;" edge="1" parent="1" source="YR-cTzBqcfhOO2y_Lg_3-15" target="YR-cTzBqcfhOO2y_Lg_3-22">
          <mxGeometry relative="1" as="geometry">
            <Array as="points">
              <mxPoint x="220" y="170" />
              <mxPoint x="220" y="170" />
            </Array>
          </mxGeometry>
        </mxCell>
        <mxCell id="YR-cTzBqcfhOO2y_Lg_3-4" value="click pulsante&lt;div&gt;informazioni attività&amp;nbsp;&lt;/div&gt;" style="edgeLabel;html=1;align=center;verticalAlign=middle;resizable=0;points=[];fontFamily=Helvetica;fontSize=11;fontColor=default;labelBackgroundColor=default;" vertex="1" connectable="0" parent="YR-cTzBqcfhOO2y_Lg_3-3">
          <mxGeometry x="-0.06" y="1" relative="1" as="geometry">
            <mxPoint y="-1" as="offset" />
          </mxGeometry>
        </mxCell>
        <mxCell id="YR-cTzBqcfhOO2y_Lg_3-5" style="edgeStyle=orthogonalEdgeStyle;shape=connector;rounded=0;orthogonalLoop=1;jettySize=auto;html=1;strokeColor=#ff0000;align=center;verticalAlign=bottom;fontFamily=Helvetica;fontSize=11;fontColor=default;labelBackgroundColor=default;endArrow=open;endSize=8;" edge="1" parent="1" source="YR-cTzBqcfhOO2y_Lg_3-15" target="YR-cTzBqcfhOO2y_Lg_3-28">
          <mxGeometry relative="1" as="geometry">
            <Array as="points">
              <mxPoint x="340" y="260" />
            </Array>
          </mxGeometry>
        </mxCell>
        <mxCell id="YR-cTzBqcfhOO2y_Lg_3-6" value="selezione difficoltà&lt;div&gt;attività&lt;/div&gt;" style="edgeLabel;html=1;align=center;verticalAlign=middle;resizable=0;points=[];fontFamily=Helvetica;fontSize=11;fontColor=default;labelBackgroundColor=default;" vertex="1" connectable="0" parent="YR-cTzBqcfhOO2y_Lg_3-5">
          <mxGeometry x="-0.07" relative="1" as="geometry">
            <mxPoint x="20" as="offset" />
          </mxGeometry>
        </mxCell>
        <mxCell id="YR-cTzBqcfhOO2y_Lg_3-7" style="edgeStyle=orthogonalEdgeStyle;shape=connector;rounded=0;orthogonalLoop=1;jettySize=auto;html=1;strokeColor=#ff0000;align=center;verticalAlign=bottom;fontFamily=Helvetica;fontSize=11;fontColor=default;labelBackgroundColor=default;endArrow=open;endSize=8;" edge="1" parent="1" source="YR-cTzBqcfhOO2y_Lg_3-15" target="YR-cTzBqcfhOO2y_Lg_3-30">
          <mxGeometry relative="1" as="geometry">
            <Array as="points">
              <mxPoint x="310" y="330" />
            </Array>
          </mxGeometry>
        </mxCell>
        <mxCell id="YR-cTzBqcfhOO2y_Lg_3-8" value="&lt;font style=&quot;font-size: 7px;&quot;&gt;click pulsante&lt;/font&gt;&lt;div&gt;&lt;span style=&quot;background-color: light-dark(#ffffff, var(--ge-dark-color, #121212)); color: light-dark(rgb(0, 0, 0), rgb(255, 255, 255));&quot;&gt;&lt;font style=&quot;font-size: 7px;&quot;&gt;aggiunta/rimozione&lt;/font&gt;&lt;/span&gt;&lt;div&gt;&lt;div&gt;&lt;font style=&quot;font-size: 7px;&quot;&gt;/sposta su/sposta giù&lt;/font&gt;&lt;/div&gt;&lt;div&gt;&lt;font style=&quot;font-size: 7px;&quot;&gt;/cambiamento numero&lt;span style=&quot;background-color: light-dark(#ffffff, var(--ge-dark-color, #121212)); color: light-dark(rgb(0, 0, 0), rgb(255, 255, 255));&quot;&gt;&amp;nbsp;&lt;/span&gt;&lt;/font&gt;&lt;div&gt;&lt;span style=&quot;color: light-dark(rgb(0, 0, 0), rgb(255, 255, 255)); background-color: light-dark(#ffffff, var(--ge-dark-color, #121212));&quot;&gt;&lt;font style=&quot;font-size: 7px;&quot;&gt;attività&lt;/font&gt;&lt;/span&gt;&lt;div&gt;&lt;span style=&quot;background-color: light-dark(#ffffff, var(--ge-dark-color, #121212)); color: light-dark(rgb(0, 0, 0), rgb(255, 255, 255));&quot;&gt;&lt;font style=&quot;font-size: 7px;&quot;&gt;a sessione corrente&lt;/font&gt;&lt;/span&gt;&lt;/div&gt;&lt;/div&gt;&lt;/div&gt;&lt;/div&gt;&lt;/div&gt;" style="edgeLabel;html=1;align=center;verticalAlign=middle;resizable=0;points=[];fontFamily=Helvetica;fontSize=11;fontColor=default;labelBackgroundColor=default;" vertex="1" connectable="0" parent="YR-cTzBqcfhOO2y_Lg_3-7">
          <mxGeometry x="-0.0254" y="2" relative="1" as="geometry">
            <mxPoint x="58" y="23" as="offset" />
          </mxGeometry>
        </mxCell>
        <mxCell id="YR-cTzBqcfhOO2y_Lg_3-9" style="edgeStyle=orthogonalEdgeStyle;shape=connector;rounded=0;orthogonalLoop=1;jettySize=auto;html=1;strokeColor=#ff0000;align=center;verticalAlign=bottom;fontFamily=Helvetica;fontSize=11;fontColor=default;labelBackgroundColor=default;endArrow=open;endSize=8;" edge="1" parent="1" source="YR-cTzBqcfhOO2y_Lg_3-15" target="YR-cTzBqcfhOO2y_Lg_3-23">
          <mxGeometry relative="1" as="geometry">
            <mxPoint x="440" y="420.03999999999996" as="targetPoint" />
            <Array as="points">
              <mxPoint x="300" y="420" />
            </Array>
          </mxGeometry>
        </mxCell>
        <mxCell id="YR-cTzBqcfhOO2y_Lg_3-10" value="click pulsante&lt;div&gt;avvio sessione corrente&lt;/div&gt;" style="edgeLabel;html=1;align=center;verticalAlign=middle;resizable=0;points=[];fontFamily=Helvetica;fontSize=11;fontColor=default;labelBackgroundColor=default;" vertex="1" connectable="0" parent="YR-cTzBqcfhOO2y_Lg_3-9">
          <mxGeometry x="0.5571" y="1" relative="1" as="geometry">
            <mxPoint as="offset" />
          </mxGeometry>
        </mxCell>
        <mxCell id="YR-cTzBqcfhOO2y_Lg_3-11" style="edgeStyle=orthogonalEdgeStyle;shape=connector;rounded=0;orthogonalLoop=1;jettySize=auto;html=1;strokeColor=#ff0000;align=center;verticalAlign=bottom;fontFamily=Helvetica;fontSize=11;fontColor=default;labelBackgroundColor=default;endArrow=open;endSize=8;" edge="1" parent="1" source="YR-cTzBqcfhOO2y_Lg_3-15" target="YR-cTzBqcfhOO2y_Lg_3-26">
          <mxGeometry relative="1" as="geometry">
            <Array as="points">
              <mxPoint x="260" y="140" />
              <mxPoint x="20" y="140" />
            </Array>
          </mxGeometry>
        </mxCell>
        <mxCell id="YR-cTzBqcfhOO2y_Lg_3-12" value="chiusura pagina" style="edgeLabel;html=1;align=center;verticalAlign=middle;resizable=0;points=[];fontFamily=Helvetica;fontSize=11;fontColor=default;labelBackgroundColor=default;" vertex="1" connectable="0" parent="YR-cTzBqcfhOO2y_Lg_3-11">
          <mxGeometry x="0.2521" y="-3" relative="1" as="geometry">
            <mxPoint x="11" y="3" as="offset" />
          </mxGeometry>
        </mxCell>
        <mxCell id="YR-cTzBqcfhOO2y_Lg_3-13" style="edgeStyle=orthogonalEdgeStyle;rounded=0;orthogonalLoop=1;jettySize=auto;html=1;strokeColor=#ff0000;align=center;verticalAlign=bottom;fontFamily=Helvetica;fontSize=11;fontColor=default;labelBackgroundColor=default;endArrow=open;endSize=8;" edge="1" parent="1" source="YR-cTzBqcfhOO2y_Lg_3-15" target="YR-cTzBqcfhOO2y_Lg_3-95">
          <mxGeometry relative="1" as="geometry">
            <Array as="points">
              <mxPoint x="280" y="250" />
            </Array>
          </mxGeometry>
        </mxCell>
        <mxCell id="YR-cTzBqcfhOO2y_Lg_3-14" value="click pulsante accedi" style="edgeLabel;html=1;align=center;verticalAlign=middle;resizable=0;points=[];" vertex="1" connectable="0" parent="YR-cTzBqcfhOO2y_Lg_3-13">
          <mxGeometry x="0.4207" y="2" relative="1" as="geometry">
            <mxPoint x="12" y="-2" as="offset" />
          </mxGeometry>
        </mxCell>
        <mxCell id="YR-cTzBqcfhOO2y_Lg_3-15" value="Pagina home" style="rounded=1;whiteSpace=wrap;html=1;arcSize=40;fontColor=#000000;fillColor=#ffffc0;strokeColor=#ff0000;" vertex="1" parent="1">
          <mxGeometry x="240" y="160" width="120" height="40" as="geometry" />
        </mxCell>
        <mxCell id="YR-cTzBqcfhOO2y_Lg_3-16" value="" style="edgeStyle=orthogonalEdgeStyle;html=1;verticalAlign=bottom;endArrow=open;endSize=8;strokeColor=#ff0000;rounded=0;" edge="1" parent="1">
          <mxGeometry relative="1" as="geometry">
            <mxPoint x="440" y="170" as="targetPoint" />
            <mxPoint x="360" y="170" as="sourcePoint" />
          </mxGeometry>
        </mxCell>
        <mxCell id="YR-cTzBqcfhOO2y_Lg_3-17" value="ricerca&lt;div&gt;&lt;span style=&quot;background-color: light-dark(#ffffff, var(--ge-dark-color, #121212)); color: light-dark(rgb(0, 0, 0), rgb(255, 255, 255));&quot;&gt;attività&lt;/span&gt;&lt;/div&gt;" style="edgeLabel;html=1;align=center;verticalAlign=middle;resizable=0;points=[];" vertex="1" connectable="0" parent="YR-cTzBqcfhOO2y_Lg_3-16">
          <mxGeometry x="-0.433" relative="1" as="geometry">
            <mxPoint x="17" as="offset" />
          </mxGeometry>
        </mxCell>
        <mxCell id="YR-cTzBqcfhOO2y_Lg_3-18" style="edgeStyle=orthogonalEdgeStyle;shape=connector;rounded=0;orthogonalLoop=1;jettySize=auto;html=1;strokeColor=#ff0000;align=center;verticalAlign=bottom;fontFamily=Helvetica;fontSize=11;fontColor=default;labelBackgroundColor=default;endArrow=open;endSize=8;" edge="1" parent="1">
          <mxGeometry relative="1" as="geometry">
            <mxPoint x="440" y="190" as="sourcePoint" />
            <mxPoint x="360" y="190" as="targetPoint" />
          </mxGeometry>
        </mxCell>
        <mxCell id="YR-cTzBqcfhOO2y_Lg_3-19" value="Aggiornamento home" style="rounded=1;whiteSpace=wrap;html=1;arcSize=40;fontColor=#000000;fillColor=#ffffc0;strokeColor=#ff0000;" vertex="1" parent="1">
          <mxGeometry x="440" y="160" width="120" height="40" as="geometry" />
        </mxCell>
        <mxCell id="YR-cTzBqcfhOO2y_Lg_3-20" style="edgeStyle=orthogonalEdgeStyle;shape=connector;rounded=0;orthogonalLoop=1;jettySize=auto;html=1;strokeColor=#ff0000;align=center;verticalAlign=bottom;fontFamily=Helvetica;fontSize=11;fontColor=default;labelBackgroundColor=default;endArrow=open;endSize=8;" edge="1" parent="1">
          <mxGeometry relative="1" as="geometry">
            <mxPoint x="80" y="190" as="sourcePoint" />
            <mxPoint x="240" y="190" as="targetPoint" />
          </mxGeometry>
        </mxCell>
        <mxCell id="YR-cTzBqcfhOO2y_Lg_3-21" value="chiusura modale" style="edgeLabel;html=1;align=center;verticalAlign=middle;resizable=0;points=[];fontFamily=Helvetica;fontSize=11;fontColor=default;labelBackgroundColor=default;" vertex="1" connectable="0" parent="YR-cTzBqcfhOO2y_Lg_3-20">
          <mxGeometry x="-0.1135" y="-1" relative="1" as="geometry">
            <mxPoint x="9" as="offset" />
          </mxGeometry>
        </mxCell>
        <mxCell id="YR-cTzBqcfhOO2y_Lg_3-22" value="Modale con informazioni attività" style="rounded=1;whiteSpace=wrap;html=1;arcSize=40;fontColor=#000000;fillColor=#ffffc0;strokeColor=#ff0000;" vertex="1" parent="1">
          <mxGeometry x="-40" y="160" width="120" height="40" as="geometry" />
        </mxCell>
        <mxCell id="YR-cTzBqcfhOO2y_Lg_3-23" value="sessione terminata?" style="rhombus;whiteSpace=wrap;html=1;fontColor=#000000;fillColor=#ffffc0;strokeColor=#ff0000;fontFamily=Helvetica;fontSize=11;labelBackgroundColor=none;" vertex="1" parent="1">
          <mxGeometry x="620" y="400" width="80" height="40" as="geometry" />
        </mxCell>
        <mxCell id="YR-cTzBqcfhOO2y_Lg_3-24" value="no" style="edgeStyle=orthogonalEdgeStyle;html=1;align=left;verticalAlign=bottom;endArrow=open;endSize=8;strokeColor=#ff0000;rounded=0;fontFamily=Helvetica;fontSize=11;fontColor=default;labelBackgroundColor=default;" edge="1" parent="1" source="YR-cTzBqcfhOO2y_Lg_3-23" target="YR-cTzBqcfhOO2y_Lg_3-41">
          <mxGeometry relative="1" as="geometry">
            <mxPoint x="660" y="480" as="targetPoint" />
            <Array as="points" />
            <mxPoint as="offset" />
          </mxGeometry>
        </mxCell>
        <mxCell id="YR-cTzBqcfhOO2y_Lg_3-25" value="sì" style="edgeStyle=orthogonalEdgeStyle;html=1;align=left;verticalAlign=top;endArrow=open;endSize=8;strokeColor=#ff0000;rounded=0;fontFamily=Helvetica;fontSize=11;fontColor=default;labelBackgroundColor=default;" edge="1" parent="1" source="YR-cTzBqcfhOO2y_Lg_3-23" target="YR-cTzBqcfhOO2y_Lg_3-15">
          <mxGeometry x="-0.9344" relative="1" as="geometry">
            <mxPoint x="640" y="500" as="targetPoint" />
            <Array as="points">
              <mxPoint x="660" y="140" />
              <mxPoint x="350" y="140" />
            </Array>
            <mxPoint as="offset" />
          </mxGeometry>
        </mxCell>
        <mxCell id="YR-cTzBqcfhOO2y_Lg_3-26" value="" style="ellipse;html=1;shape=endState;fillColor=#000000;strokeColor=#ff0000;fontFamily=Helvetica;fontSize=11;fontColor=default;labelBackgroundColor=default;" vertex="1" parent="1">
          <mxGeometry y="40" width="40" height="40" as="geometry" />
        </mxCell>
        <mxCell id="YR-cTzBqcfhOO2y_Lg_3-27" style="edgeStyle=orthogonalEdgeStyle;shape=connector;rounded=0;orthogonalLoop=1;jettySize=auto;html=1;strokeColor=#ff0000;align=center;verticalAlign=bottom;fontFamily=Helvetica;fontSize=11;fontColor=default;labelBackgroundColor=default;endArrow=open;endSize=8;" edge="1" parent="1" source="YR-cTzBqcfhOO2y_Lg_3-28" target="YR-cTzBqcfhOO2y_Lg_3-15">
          <mxGeometry relative="1" as="geometry">
            <Array as="points">
              <mxPoint x="500" y="230" />
              <mxPoint x="350" y="230" />
            </Array>
          </mxGeometry>
        </mxCell>
        <mxCell id="YR-cTzBqcfhOO2y_Lg_3-28" value="Aggiornamento difficoltà attività" style="rounded=1;whiteSpace=wrap;html=1;arcSize=40;fontColor=#000000;fillColor=#ffffc0;strokeColor=#ff0000;" vertex="1" parent="1">
          <mxGeometry x="440" y="240" width="120" height="40" as="geometry" />
        </mxCell>
        <mxCell id="YR-cTzBqcfhOO2y_Lg_3-29" style="edgeStyle=orthogonalEdgeStyle;shape=connector;rounded=0;orthogonalLoop=1;jettySize=auto;html=1;strokeColor=#ff0000;align=center;verticalAlign=bottom;fontFamily=Helvetica;fontSize=11;fontColor=default;labelBackgroundColor=default;endArrow=open;endSize=8;" edge="1" parent="1" source="YR-cTzBqcfhOO2y_Lg_3-30" target="YR-cTzBqcfhOO2y_Lg_3-15">
          <mxGeometry relative="1" as="geometry">
            <Array as="points">
              <mxPoint x="500" y="300" />
              <mxPoint x="320" y="300" />
            </Array>
          </mxGeometry>
        </mxCell>
        <mxCell id="YR-cTzBqcfhOO2y_Lg_3-30" value="Aggiornamento menù sessione corrente" style="rounded=1;whiteSpace=wrap;html=1;arcSize=40;fontColor=#000000;fillColor=#ffffc0;strokeColor=#ff0000;" vertex="1" parent="1">
          <mxGeometry x="440" y="320" width="120" height="40" as="geometry" />
        </mxCell>
        <mxCell id="YR-cTzBqcfhOO2y_Lg_3-31" style="edgeStyle=orthogonalEdgeStyle;shape=connector;rounded=0;orthogonalLoop=1;jettySize=auto;html=1;strokeColor=#ff0000;align=center;verticalAlign=bottom;fontFamily=Helvetica;fontSize=11;fontColor=default;labelBackgroundColor=default;endArrow=open;endSize=8;" edge="1" parent="1" source="YR-cTzBqcfhOO2y_Lg_3-41" target="YR-cTzBqcfhOO2y_Lg_3-43">
          <mxGeometry relative="1" as="geometry">
            <Array as="points">
              <mxPoint x="780" y="490" />
              <mxPoint x="780" y="490" />
            </Array>
          </mxGeometry>
        </mxCell>
        <mxCell id="YR-cTzBqcfhOO2y_Lg_3-32" value="indovinare colore parola" style="edgeLabel;html=1;align=center;verticalAlign=middle;resizable=0;points=[];fontFamily=Helvetica;fontSize=11;fontColor=default;labelBackgroundColor=default;" vertex="1" connectable="0" parent="YR-cTzBqcfhOO2y_Lg_3-31">
          <mxGeometry x="-0.5534" y="1" relative="1" as="geometry">
            <mxPoint x="75" as="offset" />
          </mxGeometry>
        </mxCell>
        <mxCell id="YR-cTzBqcfhOO2y_Lg_3-33" style="edgeStyle=orthogonalEdgeStyle;shape=connector;rounded=0;orthogonalLoop=1;jettySize=auto;html=1;strokeColor=#ff0000;align=center;verticalAlign=bottom;fontFamily=Helvetica;fontSize=11;fontColor=default;labelBackgroundColor=default;endArrow=open;endSize=8;" edge="1" parent="1" source="YR-cTzBqcfhOO2y_Lg_3-41" target="YR-cTzBqcfhOO2y_Lg_3-45">
          <mxGeometry relative="1" as="geometry">
            <Array as="points">
              <mxPoint x="720" y="510" />
              <mxPoint x="720" y="620" />
            </Array>
          </mxGeometry>
        </mxCell>
        <mxCell id="YR-cTzBqcfhOO2y_Lg_3-34" value="ora analogica in digitale" style="edgeLabel;html=1;align=center;verticalAlign=middle;resizable=0;points=[];fontFamily=Helvetica;fontSize=11;fontColor=default;labelBackgroundColor=default;" vertex="1" connectable="0" parent="YR-cTzBqcfhOO2y_Lg_3-33">
          <mxGeometry x="-0.0426" y="1" relative="1" as="geometry">
            <mxPoint x="79" y="2" as="offset" />
          </mxGeometry>
        </mxCell>
        <mxCell id="YR-cTzBqcfhOO2y_Lg_3-35" style="edgeStyle=orthogonalEdgeStyle;shape=connector;rounded=0;orthogonalLoop=1;jettySize=auto;html=1;strokeColor=#ff0000;align=center;verticalAlign=bottom;fontFamily=Helvetica;fontSize=11;fontColor=default;labelBackgroundColor=default;endArrow=open;endSize=8;" edge="1" parent="1" source="YR-cTzBqcfhOO2y_Lg_3-41" target="YR-cTzBqcfhOO2y_Lg_3-47">
          <mxGeometry relative="1" as="geometry">
            <Array as="points">
              <mxPoint x="540" y="490" />
              <mxPoint x="540" y="490" />
            </Array>
          </mxGeometry>
        </mxCell>
        <mxCell id="YR-cTzBqcfhOO2y_Lg_3-36" value="abbinamento oggetto-parola" style="edgeLabel;html=1;align=center;verticalAlign=middle;resizable=0;points=[];fontFamily=Helvetica;fontSize=11;fontColor=default;labelBackgroundColor=default;" vertex="1" connectable="0" parent="YR-cTzBqcfhOO2y_Lg_3-35">
          <mxGeometry x="0.3957" relative="1" as="geometry">
            <mxPoint x="30" as="offset" />
          </mxGeometry>
        </mxCell>
        <mxCell id="YR-cTzBqcfhOO2y_Lg_3-37" style="edgeStyle=orthogonalEdgeStyle;shape=connector;rounded=0;orthogonalLoop=1;jettySize=auto;html=1;strokeColor=#ff0000;align=center;verticalAlign=bottom;fontFamily=Helvetica;fontSize=11;fontColor=default;labelBackgroundColor=default;endArrow=open;endSize=8;" edge="1" parent="1" source="YR-cTzBqcfhOO2y_Lg_3-41" target="YR-cTzBqcfhOO2y_Lg_3-49">
          <mxGeometry relative="1" as="geometry">
            <Array as="points">
              <mxPoint x="600" y="510" />
              <mxPoint x="600" y="620" />
            </Array>
          </mxGeometry>
        </mxCell>
        <mxCell id="YR-cTzBqcfhOO2y_Lg_3-38" value="riordinamento lettere in parola" style="edgeLabel;html=1;align=center;verticalAlign=middle;resizable=0;points=[];fontFamily=Helvetica;fontSize=11;fontColor=default;labelBackgroundColor=default;" vertex="1" connectable="0" parent="YR-cTzBqcfhOO2y_Lg_3-37">
          <mxGeometry x="-0.0688" y="-2" relative="1" as="geometry">
            <mxPoint x="-58" y="6" as="offset" />
          </mxGeometry>
        </mxCell>
        <mxCell id="YR-cTzBqcfhOO2y_Lg_3-39" style="edgeStyle=orthogonalEdgeStyle;shape=connector;rounded=0;orthogonalLoop=1;jettySize=auto;html=1;strokeColor=#ff0000;align=center;verticalAlign=bottom;fontFamily=Helvetica;fontSize=11;fontColor=default;labelBackgroundColor=default;endArrow=open;endSize=8;" edge="1" parent="1" source="YR-cTzBqcfhOO2y_Lg_3-41" target="YR-cTzBqcfhOO2y_Lg_3-51">
          <mxGeometry relative="1" as="geometry">
            <mxPoint x="660" y="680" as="targetPoint" />
          </mxGeometry>
        </mxCell>
        <mxCell id="YR-cTzBqcfhOO2y_Lg_3-40" value="riordinamento&lt;div&gt;numeri&lt;/div&gt;" style="edgeLabel;html=1;align=center;verticalAlign=middle;resizable=0;points=[];fontFamily=Helvetica;fontSize=11;fontColor=default;labelBackgroundColor=default;" vertex="1" connectable="0" parent="YR-cTzBqcfhOO2y_Lg_3-39">
          <mxGeometry x="0.3015" y="-1" relative="1" as="geometry">
            <mxPoint as="offset" />
          </mxGeometry>
        </mxCell>
        <mxCell id="YR-cTzBqcfhOO2y_Lg_3-41" value="" style="shape=rhombus;html=1;verticalLabelPosition=bottom;verticalAlignment=top;fontFamily=Helvetica;fontSize=11;fontColor=#000000;labelBackgroundColor=none;strokeColor=#ff0000;align=center;verticalAlign=top;fillColor=#ffffc0;" vertex="1" parent="1">
          <mxGeometry x="640" y="480" width="40" height="40" as="geometry" />
        </mxCell>
        <mxCell id="YR-cTzBqcfhOO2y_Lg_3-42" style="edgeStyle=orthogonalEdgeStyle;shape=connector;rounded=0;orthogonalLoop=1;jettySize=auto;html=1;strokeColor=#ff0000;align=center;verticalAlign=bottom;fontFamily=Helvetica;fontSize=11;fontColor=default;labelBackgroundColor=default;endArrow=open;endSize=8;" edge="1" parent="1" source="YR-cTzBqcfhOO2y_Lg_3-43" target="YR-cTzBqcfhOO2y_Lg_3-53">
          <mxGeometry relative="1" as="geometry">
            <Array as="points">
              <mxPoint x="1040" y="500" />
              <mxPoint x="1040" y="830" />
            </Array>
          </mxGeometry>
        </mxCell>
        <mxCell id="YR-cTzBqcfhOO2y_Lg_3-43" value="Attività indovinare colore parola" style="rounded=1;whiteSpace=wrap;html=1;arcSize=40;fontColor=#000000;fillColor=#ffffc0;strokeColor=#ff0000;" vertex="1" parent="1">
          <mxGeometry x="880" y="480" width="120" height="40" as="geometry" />
        </mxCell>
        <mxCell id="YR-cTzBqcfhOO2y_Lg_3-44" style="edgeStyle=orthogonalEdgeStyle;shape=connector;rounded=0;orthogonalLoop=1;jettySize=auto;html=1;strokeColor=#ff0000;align=center;verticalAlign=bottom;fontFamily=Helvetica;fontSize=11;fontColor=default;labelBackgroundColor=default;endArrow=open;endSize=8;" edge="1" parent="1" source="YR-cTzBqcfhOO2y_Lg_3-45" target="YR-cTzBqcfhOO2y_Lg_3-53">
          <mxGeometry relative="1" as="geometry">
            <Array as="points">
              <mxPoint x="940" y="810" />
            </Array>
          </mxGeometry>
        </mxCell>
        <mxCell id="YR-cTzBqcfhOO2y_Lg_3-45" value="Attività ora analogica in digitale" style="rounded=1;whiteSpace=wrap;html=1;arcSize=40;fontColor=#000000;fillColor=#ffffc0;strokeColor=#ff0000;" vertex="1" parent="1">
          <mxGeometry x="880" y="600" width="120" height="40" as="geometry" />
        </mxCell>
        <mxCell id="YR-cTzBqcfhOO2y_Lg_3-46" style="edgeStyle=orthogonalEdgeStyle;shape=connector;rounded=0;orthogonalLoop=1;jettySize=auto;html=1;strokeColor=#ff0000;align=center;verticalAlign=bottom;fontFamily=Helvetica;fontSize=11;fontColor=default;labelBackgroundColor=default;endArrow=open;endSize=8;" edge="1" parent="1" source="YR-cTzBqcfhOO2y_Lg_3-47" target="YR-cTzBqcfhOO2y_Lg_3-53">
          <mxGeometry relative="1" as="geometry">
            <Array as="points">
              <mxPoint x="280" y="500" />
              <mxPoint x="280" y="830" />
            </Array>
          </mxGeometry>
        </mxCell>
        <mxCell id="YR-cTzBqcfhOO2y_Lg_3-47" value="Attività abbinamento oggetto-parola" style="rounded=1;whiteSpace=wrap;html=1;arcSize=40;fontColor=#000000;fillColor=#ffffc0;strokeColor=#ff0000;" vertex="1" parent="1">
          <mxGeometry x="320" y="480" width="120" height="40" as="geometry" />
        </mxCell>
        <mxCell id="YR-cTzBqcfhOO2y_Lg_3-48" style="edgeStyle=orthogonalEdgeStyle;shape=connector;rounded=0;orthogonalLoop=1;jettySize=auto;html=1;strokeColor=#ff0000;align=center;verticalAlign=bottom;fontFamily=Helvetica;fontSize=11;fontColor=default;labelBackgroundColor=default;endArrow=open;endSize=8;" edge="1" parent="1" source="YR-cTzBqcfhOO2y_Lg_3-49" target="YR-cTzBqcfhOO2y_Lg_3-53">
          <mxGeometry relative="1" as="geometry">
            <Array as="points">
              <mxPoint x="380" y="810" />
            </Array>
          </mxGeometry>
        </mxCell>
        <mxCell id="YR-cTzBqcfhOO2y_Lg_3-49" value="Attività riordinamento letterere in parola" style="rounded=1;whiteSpace=wrap;html=1;arcSize=40;fontColor=#000000;fillColor=#ffffc0;strokeColor=#ff0000;" vertex="1" parent="1">
          <mxGeometry x="320" y="600" width="120" height="40" as="geometry" />
        </mxCell>
        <mxCell id="YR-cTzBqcfhOO2y_Lg_3-50" style="edgeStyle=orthogonalEdgeStyle;shape=connector;rounded=0;orthogonalLoop=1;jettySize=auto;html=1;strokeColor=#ff0000;align=center;verticalAlign=bottom;fontFamily=Helvetica;fontSize=11;fontColor=default;labelBackgroundColor=default;endArrow=open;endSize=8;" edge="1" parent="1" source="YR-cTzBqcfhOO2y_Lg_3-51" target="YR-cTzBqcfhOO2y_Lg_3-53">
          <mxGeometry relative="1" as="geometry" />
        </mxCell>
        <mxCell id="YR-cTzBqcfhOO2y_Lg_3-51" value="Attività riordinamento numeri" style="rounded=1;whiteSpace=wrap;html=1;arcSize=40;fontColor=#000000;fillColor=#ffffc0;strokeColor=#ff0000;" vertex="1" parent="1">
          <mxGeometry x="600" y="680" width="120" height="40" as="geometry" />
        </mxCell>
        <mxCell id="YR-cTzBqcfhOO2y_Lg_3-52" style="edgeStyle=none;html=1;rounded=0;strokeColor=#ff0000;align=center;verticalAlign=bottom;fontFamily=Helvetica;fontSize=11;fontColor=default;labelBackgroundColor=default;endArrow=open;endSize=8;" edge="1" parent="1" source="YR-cTzBqcfhOO2y_Lg_3-53" target="YR-cTzBqcfhOO2y_Lg_3-67">
          <mxGeometry relative="1" as="geometry" />
        </mxCell>
        <mxCell id="YR-cTzBqcfhOO2y_Lg_3-53" value="" style="shape=rhombus;html=1;verticalLabelPosition=top;verticalAlignment=bottom;fontFamily=Helvetica;fontSize=11;fontColor=#000000;labelBackgroundColor=none;strokeColor=#ff0000;align=center;verticalAlign=top;fillColor=#ffffc0;" vertex="1" parent="1">
          <mxGeometry x="640" y="800" width="40" height="40" as="geometry" />
        </mxCell>
        <mxCell id="YR-cTzBqcfhOO2y_Lg_3-54" value="risposta corretta" style="edgeStyle=none;shape=connector;rounded=0;html=1;strokeColor=#ff0000;align=center;verticalAlign=bottom;fontFamily=Helvetica;fontSize=11;fontColor=default;labelBackgroundColor=default;endArrow=open;endSize=8;" edge="1" parent="1">
          <mxGeometry y="-10" relative="1" as="geometry">
            <mxPoint x="720" y="890" as="sourcePoint" />
            <mxPoint x="840" y="890" as="targetPoint" />
            <mxPoint as="offset" />
          </mxGeometry>
        </mxCell>
        <mxCell id="YR-cTzBqcfhOO2y_Lg_3-55" style="edgeStyle=orthogonalEdgeStyle;rounded=0;orthogonalLoop=1;jettySize=auto;html=1;strokeColor=#ff0000;align=center;verticalAlign=bottom;fontFamily=Helvetica;fontSize=11;fontColor=default;labelBackgroundColor=default;endArrow=open;endSize=8;" edge="1" parent="1" source="YR-cTzBqcfhOO2y_Lg_3-67" target="YR-cTzBqcfhOO2y_Lg_3-71">
          <mxGeometry relative="1" as="geometry">
            <Array as="points">
              <mxPoint x="710" y="970" />
            </Array>
          </mxGeometry>
        </mxCell>
        <mxCell id="YR-cTzBqcfhOO2y_Lg_3-56" value="risposta sbagliata" style="edgeLabel;html=1;align=center;verticalAlign=middle;resizable=0;points=[];fontFamily=Helvetica;fontSize=11;fontColor=default;labelBackgroundColor=default;" vertex="1" connectable="0" parent="YR-cTzBqcfhOO2y_Lg_3-55">
          <mxGeometry x="0.1011" y="2" relative="1" as="geometry">
            <mxPoint x="21" as="offset" />
          </mxGeometry>
        </mxCell>
        <mxCell id="YR-cTzBqcfhOO2y_Lg_3-57" style="edgeStyle=orthogonalEdgeStyle;shape=connector;rounded=0;orthogonalLoop=1;jettySize=auto;html=1;strokeColor=#ff0000;align=center;verticalAlign=bottom;fontFamily=Helvetica;fontSize=11;fontColor=default;labelBackgroundColor=default;endArrow=open;endSize=8;" edge="1" parent="1" source="YR-cTzBqcfhOO2y_Lg_3-67" target="YR-cTzBqcfhOO2y_Lg_3-73">
          <mxGeometry relative="1" as="geometry">
            <Array as="points">
              <mxPoint x="690" y="1050" />
            </Array>
          </mxGeometry>
        </mxCell>
        <mxCell id="YR-cTzBqcfhOO2y_Lg_3-58" value="correzione automatica" style="edgeLabel;html=1;align=center;verticalAlign=middle;resizable=0;points=[];fontFamily=Helvetica;fontSize=11;fontColor=default;labelBackgroundColor=default;" vertex="1" connectable="0" parent="YR-cTzBqcfhOO2y_Lg_3-57">
          <mxGeometry x="0.2899" relative="1" as="geometry">
            <mxPoint x="19" as="offset" />
          </mxGeometry>
        </mxCell>
        <mxCell id="YR-cTzBqcfhOO2y_Lg_3-59" style="edgeStyle=orthogonalEdgeStyle;shape=connector;rounded=0;orthogonalLoop=1;jettySize=auto;html=1;strokeColor=#ff0000;align=center;verticalAlign=bottom;fontFamily=Helvetica;fontSize=11;fontColor=default;labelBackgroundColor=default;endArrow=open;endSize=8;" edge="1" parent="1" source="YR-cTzBqcfhOO2y_Lg_3-67" target="YR-cTzBqcfhOO2y_Lg_3-75">
          <mxGeometry relative="1" as="geometry">
            <Array as="points">
              <mxPoint x="670" y="1130" />
            </Array>
          </mxGeometry>
        </mxCell>
        <mxCell id="YR-cTzBqcfhOO2y_Lg_3-60" value="click pulsante ricarica attività" style="edgeLabel;html=1;align=center;verticalAlign=middle;resizable=0;points=[];fontFamily=Helvetica;fontSize=11;fontColor=default;labelBackgroundColor=default;" vertex="1" connectable="0" parent="YR-cTzBqcfhOO2y_Lg_3-59">
          <mxGeometry x="0.4375" y="-2" relative="1" as="geometry">
            <mxPoint x="17" y="-2" as="offset" />
          </mxGeometry>
        </mxCell>
        <mxCell id="YR-cTzBqcfhOO2y_Lg_3-61" style="edgeStyle=orthogonalEdgeStyle;shape=connector;rounded=0;orthogonalLoop=1;jettySize=auto;html=1;strokeColor=#ff0000;align=center;verticalAlign=bottom;fontFamily=Helvetica;fontSize=11;fontColor=default;labelBackgroundColor=default;endArrow=open;endSize=8;" edge="1" parent="1" source="YR-cTzBqcfhOO2y_Lg_3-67" target="YR-cTzBqcfhOO2y_Lg_3-82">
          <mxGeometry relative="1" as="geometry">
            <mxPoint x="650" y="930" as="sourcePoint" />
            <mxPoint x="860" y="1220" as="targetPoint" />
            <Array as="points">
              <mxPoint x="650" y="1220" />
            </Array>
          </mxGeometry>
        </mxCell>
        <mxCell id="YR-cTzBqcfhOO2y_Lg_3-62" value="click pulsante attività successiva" style="edgeLabel;html=1;align=center;verticalAlign=middle;resizable=0;points=[];fontFamily=Helvetica;fontSize=11;fontColor=default;labelBackgroundColor=default;" vertex="1" connectable="0" parent="YR-cTzBqcfhOO2y_Lg_3-61">
          <mxGeometry x="0.3803" y="2" relative="1" as="geometry">
            <mxPoint x="52" y="2" as="offset" />
          </mxGeometry>
        </mxCell>
        <mxCell id="YR-cTzBqcfhOO2y_Lg_3-63" style="edgeStyle=orthogonalEdgeStyle;shape=connector;rounded=0;orthogonalLoop=1;jettySize=auto;html=1;strokeColor=#ff0000;align=center;verticalAlign=bottom;fontFamily=Helvetica;fontSize=11;fontColor=default;labelBackgroundColor=default;endArrow=open;endSize=8;" edge="1" parent="1" source="YR-cTzBqcfhOO2y_Lg_3-67" target="YR-cTzBqcfhOO2y_Lg_3-87">
          <mxGeometry relative="1" as="geometry">
            <Array as="points">
              <mxPoint x="630" y="1300" />
            </Array>
          </mxGeometry>
        </mxCell>
        <mxCell id="YR-cTzBqcfhOO2y_Lg_3-64" value="click pulsante attività precedente" style="edgeLabel;html=1;align=center;verticalAlign=middle;resizable=0;points=[];fontFamily=Helvetica;fontSize=11;fontColor=default;labelBackgroundColor=default;" vertex="1" connectable="0" parent="YR-cTzBqcfhOO2y_Lg_3-63">
          <mxGeometry x="0.5197" y="1" relative="1" as="geometry">
            <mxPoint x="42" y="1" as="offset" />
          </mxGeometry>
        </mxCell>
        <mxCell id="YR-cTzBqcfhOO2y_Lg_3-65" style="edgeStyle=orthogonalEdgeStyle;shape=connector;rounded=0;orthogonalLoop=1;jettySize=auto;html=1;strokeColor=#ff0000;align=center;verticalAlign=bottom;fontFamily=Helvetica;fontSize=11;fontColor=default;labelBackgroundColor=default;endArrow=open;endSize=8;" edge="1" parent="1" source="YR-cTzBqcfhOO2y_Lg_3-67" target="YR-cTzBqcfhOO2y_Lg_3-15">
          <mxGeometry relative="1" as="geometry">
            <Array as="points">
              <mxPoint x="260" y="900" />
            </Array>
          </mxGeometry>
        </mxCell>
        <mxCell id="YR-cTzBqcfhOO2y_Lg_3-66" value="click pulsante per tornare a home" style="edgeLabel;html=1;align=center;verticalAlign=middle;resizable=0;points=[];fontFamily=Helvetica;fontSize=11;fontColor=default;labelBackgroundColor=default;" vertex="1" connectable="0" parent="YR-cTzBqcfhOO2y_Lg_3-65">
          <mxGeometry x="-0.8197" y="-3" relative="1" as="geometry">
            <mxPoint x="-26" y="3" as="offset" />
          </mxGeometry>
        </mxCell>
        <mxCell id="YR-cTzBqcfhOO2y_Lg_3-67" value="Attività iniziata" style="rounded=1;whiteSpace=wrap;html=1;arcSize=40;fontColor=#000000;fillColor=#ffffc0;strokeColor=#ff0000;" vertex="1" parent="1">
          <mxGeometry x="600" y="880" width="120" height="40" as="geometry" />
        </mxCell>
        <mxCell id="YR-cTzBqcfhOO2y_Lg_3-68" style="edgeStyle=orthogonalEdgeStyle;shape=connector;rounded=0;orthogonalLoop=1;jettySize=auto;html=1;strokeColor=#ff0000;align=center;verticalAlign=bottom;fontFamily=Helvetica;fontSize=11;fontColor=default;labelBackgroundColor=default;endArrow=open;endSize=8;" edge="1" parent="1" source="YR-cTzBqcfhOO2y_Lg_3-69" target="YR-cTzBqcfhOO2y_Lg_3-77">
          <mxGeometry relative="1" as="geometry" />
        </mxCell>
        <mxCell id="YR-cTzBqcfhOO2y_Lg_3-69" value="Messaggio di successo&lt;span style=&quot;font-family: monospace; font-size: 0px; text-align: start; text-wrap-mode: nowrap;&quot;&gt;%3CmxGraphModel%3E%3Croot%3E%3CmxCell%20id%3D%220%22%2F%3E%3CmxCell%20id%3D%221%22%20parent%3D%220%22%2F%3E%3CmxCell%20id%3D%222%22%20value%3D%22Attivit%C3%A0%20iniziata%22%20style%3D%22rounded%3D1%3BwhiteSpace%3Dwrap%3Bhtml%3D1%3BarcSize%3D40%3BfontColor%3D%23000000%3BfillColor%3D%23ffffc0%3BstrokeColor%3D%23ff0000%3B%22%20vertex%3D%221%22%20parent%3D%221%22%3E%3CmxGeometry%20x%3D%22600%22%20y%3D%22880%22%20width%3D%22120%22%20height%3D%2240%22%20as%3D%22geometry%22%2F%3E%3C%2FmxCell%3E%3C%2Froot%3E%3C%2FmxGraphModel%3E&lt;/span&gt;" style="rounded=1;whiteSpace=wrap;html=1;arcSize=40;fontColor=#000000;fillColor=#ffffc0;strokeColor=#ff0000;" vertex="1" parent="1">
          <mxGeometry x="840" y="880" width="120" height="40" as="geometry" />
        </mxCell>
        <mxCell id="YR-cTzBqcfhOO2y_Lg_3-70" style="edgeStyle=orthogonalEdgeStyle;shape=connector;rounded=0;orthogonalLoop=1;jettySize=auto;html=1;strokeColor=#ff0000;align=center;verticalAlign=bottom;fontFamily=Helvetica;fontSize=11;fontColor=default;labelBackgroundColor=default;endArrow=open;endSize=8;" edge="1" parent="1" source="YR-cTzBqcfhOO2y_Lg_3-71" target="YR-cTzBqcfhOO2y_Lg_3-67">
          <mxGeometry relative="1" as="geometry">
            <Array as="points">
              <mxPoint x="700" y="990" />
            </Array>
          </mxGeometry>
        </mxCell>
        <mxCell id="YR-cTzBqcfhOO2y_Lg_3-71" value="Messaggio di errore&lt;span style=&quot;font-family: monospace; font-size: 0px; text-align: start; text-wrap-mode: nowrap;&quot;&gt;%3CmxGraphModel%3E%3Croot%3E%3CmxCell%20id%3D%220%22%2F%3E%3CmxCell%20id%3D%221%22%20parent%3D%220%22%2F%3E%3CmxCell%20id%3D%222%22%20value%3D%22Attivit%C3%A0%20iniziata%22%20style%3D%22rounded%3D1%3BwhiteSpace%3Dwrap%3Bhtml%3D1%3BarcSize%3D40%3BfontColor%3D%23000000%3BfillColor%3D%23ffffc0%3BstrokeColor%3D%23ff0000%3B%22%20vertex%3D%221%22%20parent%3D%221%22%3E%3CmxGeometry%20x%3D%22600%22%20y%3D%22880%22%20width%3D%22120%22%20height%3D%2240%22%20as%3D%22geometry%22%2F%3E%3C%2FmxCell%3E%3C%2Froot%3E%3C%2FmxGraphModel%&lt;/span&gt;" style="rounded=1;whiteSpace=wrap;html=1;arcSize=40;fontColor=#000000;fillColor=#ffffc0;strokeColor=#ff0000;" vertex="1" parent="1">
          <mxGeometry x="840" y="960" width="120" height="40" as="geometry" />
        </mxCell>
        <mxCell id="YR-cTzBqcfhOO2y_Lg_3-72" style="edgeStyle=orthogonalEdgeStyle;shape=connector;rounded=0;orthogonalLoop=1;jettySize=auto;html=1;strokeColor=#ff0000;align=center;verticalAlign=bottom;fontFamily=Helvetica;fontSize=11;fontColor=default;labelBackgroundColor=default;endArrow=open;endSize=8;" edge="1" parent="1" source="YR-cTzBqcfhOO2y_Lg_3-73" target="YR-cTzBqcfhOO2y_Lg_3-67">
          <mxGeometry relative="1" as="geometry">
            <Array as="points">
              <mxPoint x="680" y="1070" />
            </Array>
          </mxGeometry>
        </mxCell>
        <mxCell id="YR-cTzBqcfhOO2y_Lg_3-73" value="Messaggio di correzione automatica&lt;span style=&quot;font-family: monospace; font-size: 0px; text-align: start; text-wrap-mode: nowrap;&quot;&gt;%3CmxGraphModel%3E%3Croot%3E%3CmxCell%20id%3D%220%22%2F%3E%3CmxCell%20id%3D%221%22%20parent%3D%220%22%2F%3E%3CmxCell%20id%3D%222%22%20value%3D%22Attivit%C3%A0%20iniziata%22%20style%3D%22rounded%3D1%3BwhiteSpace%3Dwrap%3Bhtml%3D1%3BarcSize%3D40%3BfontColor%3D%23000000%3BfillColor%3D%23ffffc0%3BstrokeColor%3D%23ff0000%3B%22%20vertex%3D%221%22%20parent%3D%221%22%3E%3CmxGeometry%20x%3D%22600%22%20y%3D%22880%22%20width%3D%22120%22%20height%3D%2240%22%20as%3D%22geometry%22%2F%3E%3C%2FmxCell%3E%3C%2Froot%3E%3C%2FmxGraphModel%&lt;/span&gt;" style="rounded=1;whiteSpace=wrap;html=1;arcSize=40;fontColor=#000000;fillColor=#ffffc0;strokeColor=#ff0000;" vertex="1" parent="1">
          <mxGeometry x="840" y="1040" width="120" height="40" as="geometry" />
        </mxCell>
        <mxCell id="YR-cTzBqcfhOO2y_Lg_3-74" style="edgeStyle=orthogonalEdgeStyle;shape=connector;rounded=0;orthogonalLoop=1;jettySize=auto;html=1;strokeColor=#ff0000;align=center;verticalAlign=bottom;fontFamily=Helvetica;fontSize=11;fontColor=default;labelBackgroundColor=default;endArrow=open;endSize=8;" edge="1" parent="1" source="YR-cTzBqcfhOO2y_Lg_3-75" target="YR-cTzBqcfhOO2y_Lg_3-67">
          <mxGeometry relative="1" as="geometry">
            <Array as="points">
              <mxPoint x="660" y="1140" />
            </Array>
          </mxGeometry>
        </mxCell>
        <mxCell id="YR-cTzBqcfhOO2y_Lg_3-75" value="Richiesta nuovi dati" style="rounded=1;whiteSpace=wrap;html=1;arcSize=40;fontColor=#000000;fillColor=#ffffc0;strokeColor=#ff0000;" vertex="1" parent="1">
          <mxGeometry x="840" y="1120" width="120" height="40" as="geometry" />
        </mxCell>
        <mxCell id="YR-cTzBqcfhOO2y_Lg_3-76" style="edgeStyle=orthogonalEdgeStyle;shape=connector;rounded=0;orthogonalLoop=1;jettySize=auto;html=1;strokeColor=#ff0000;align=center;verticalAlign=bottom;fontFamily=Helvetica;fontSize=11;fontColor=default;labelBackgroundColor=default;endArrow=open;endSize=8;" edge="1" parent="1" source="YR-cTzBqcfhOO2y_Lg_3-77" target="YR-cTzBqcfhOO2y_Lg_3-67">
          <mxGeometry relative="1" as="geometry">
            <Array as="points">
              <mxPoint x="1060" y="930" />
              <mxPoint x="740" y="930" />
              <mxPoint x="740" y="900" />
            </Array>
          </mxGeometry>
        </mxCell>
        <mxCell id="YR-cTzBqcfhOO2y_Lg_3-77" value="Abilita pulsante per avanzare" style="rounded=1;whiteSpace=wrap;html=1;arcSize=40;fontColor=#000000;fillColor=#ffffc0;strokeColor=#ff0000;" vertex="1" parent="1">
          <mxGeometry x="1000" y="880" width="120" height="40" as="geometry" />
        </mxCell>
        <mxCell id="YR-cTzBqcfhOO2y_Lg_3-78" style="edgeStyle=orthogonalEdgeStyle;shape=connector;rounded=0;orthogonalLoop=1;jettySize=auto;html=1;strokeColor=#ff0000;align=center;verticalAlign=bottom;fontFamily=Helvetica;fontSize=11;fontColor=default;labelBackgroundColor=default;endArrow=open;endSize=8;" edge="1" parent="1" source="YR-cTzBqcfhOO2y_Lg_3-82" target="YR-cTzBqcfhOO2y_Lg_3-67">
          <mxGeometry relative="1" as="geometry">
            <Array as="points">
              <mxPoint x="880" y="1250" />
              <mxPoint x="640" y="1250" />
            </Array>
          </mxGeometry>
        </mxCell>
        <mxCell id="YR-cTzBqcfhOO2y_Lg_3-79" value="no" style="edgeLabel;html=1;align=center;verticalAlign=middle;resizable=0;points=[];fontFamily=Helvetica;fontSize=11;fontColor=default;labelBackgroundColor=default;" vertex="1" connectable="0" parent="YR-cTzBqcfhOO2y_Lg_3-78">
          <mxGeometry x="-0.8711" relative="1" as="geometry">
            <mxPoint x="37" as="offset" />
          </mxGeometry>
        </mxCell>
        <mxCell id="YR-cTzBqcfhOO2y_Lg_3-80" style="edgeStyle=orthogonalEdgeStyle;shape=connector;rounded=0;orthogonalLoop=1;jettySize=auto;html=1;strokeColor=#ff0000;align=center;verticalAlign=bottom;fontFamily=Helvetica;fontSize=11;fontColor=default;labelBackgroundColor=default;endArrow=open;endSize=8;" edge="1" parent="1">
          <mxGeometry relative="1" as="geometry">
            <mxPoint x="900" y="1220" as="sourcePoint" />
            <mxPoint x="700" y="430" as="targetPoint" />
            <Array as="points">
              <mxPoint x="1160" y="1220" />
              <mxPoint x="1160" y="430" />
            </Array>
          </mxGeometry>
        </mxCell>
        <mxCell id="YR-cTzBqcfhOO2y_Lg_3-81" value="sì" style="edgeLabel;html=1;align=center;verticalAlign=middle;resizable=0;points=[];fontFamily=Helvetica;fontSize=11;fontColor=default;labelBackgroundColor=default;" vertex="1" connectable="0" parent="YR-cTzBqcfhOO2y_Lg_3-80">
          <mxGeometry x="-0.9707" y="1" relative="1" as="geometry">
            <mxPoint x="-2" y="-9" as="offset" />
          </mxGeometry>
        </mxCell>
        <mxCell id="YR-cTzBqcfhOO2y_Lg_3-82" value="attività corretta?" style="rhombus;whiteSpace=wrap;html=1;fontColor=#000000;fillColor=#ffffc0;strokeColor=#ff0000;fontFamily=Helvetica;fontSize=11;labelBackgroundColor=none;" vertex="1" parent="1">
          <mxGeometry x="840" y="1200" width="80" height="40" as="geometry" />
        </mxCell>
        <mxCell id="YR-cTzBqcfhOO2y_Lg_3-83" style="edgeStyle=orthogonalEdgeStyle;shape=connector;rounded=0;orthogonalLoop=1;jettySize=auto;html=1;strokeColor=#ff0000;align=center;verticalAlign=bottom;fontFamily=Helvetica;fontSize=11;fontColor=default;labelBackgroundColor=default;endArrow=open;endSize=8;" edge="1" parent="1" source="YR-cTzBqcfhOO2y_Lg_3-87" target="YR-cTzBqcfhOO2y_Lg_3-89">
          <mxGeometry relative="1" as="geometry" />
        </mxCell>
        <mxCell id="YR-cTzBqcfhOO2y_Lg_3-84" value="no" style="edgeLabel;html=1;align=center;verticalAlign=middle;resizable=0;points=[];fontFamily=Helvetica;fontSize=11;fontColor=default;labelBackgroundColor=default;" vertex="1" connectable="0" parent="YR-cTzBqcfhOO2y_Lg_3-83">
          <mxGeometry x="-0.51" y="-1" relative="1" as="geometry">
            <mxPoint x="11" y="-9" as="offset" />
          </mxGeometry>
        </mxCell>
        <mxCell id="YR-cTzBqcfhOO2y_Lg_3-85" style="edgeStyle=orthogonalEdgeStyle;shape=connector;rounded=0;orthogonalLoop=1;jettySize=auto;html=1;strokeColor=#ff0000;align=center;verticalAlign=bottom;fontFamily=Helvetica;fontSize=11;fontColor=default;labelBackgroundColor=default;endArrow=open;endSize=8;" edge="1" parent="1" source="YR-cTzBqcfhOO2y_Lg_3-87" target="YR-cTzBqcfhOO2y_Lg_3-41">
          <mxGeometry relative="1" as="geometry">
            <Array as="points">
              <mxPoint x="960" y="1300" />
              <mxPoint x="960" y="1440" />
              <mxPoint x="240" y="1440" />
              <mxPoint x="240" y="460" />
              <mxPoint x="660" y="460" />
            </Array>
          </mxGeometry>
        </mxCell>
        <mxCell id="YR-cTzBqcfhOO2y_Lg_3-86" value="sì" style="edgeLabel;html=1;align=center;verticalAlign=middle;resizable=0;points=[];fontFamily=Helvetica;fontSize=11;fontColor=default;labelBackgroundColor=default;" vertex="1" connectable="0" parent="YR-cTzBqcfhOO2y_Lg_3-85">
          <mxGeometry x="-0.9794" y="1" relative="1" as="geometry">
            <mxPoint x="-14" y="-9" as="offset" />
          </mxGeometry>
        </mxCell>
        <mxCell id="YR-cTzBqcfhOO2y_Lg_3-87" value="ci sono attività prima?" style="rhombus;whiteSpace=wrap;html=1;fontColor=#000000;fillColor=#ffffc0;strokeColor=#ff0000;fontFamily=Helvetica;fontSize=11;labelBackgroundColor=none;" vertex="1" parent="1">
          <mxGeometry x="840" y="1280" width="80" height="40" as="geometry" />
        </mxCell>
        <mxCell id="YR-cTzBqcfhOO2y_Lg_3-88" style="edgeStyle=orthogonalEdgeStyle;shape=connector;rounded=0;orthogonalLoop=1;jettySize=auto;html=1;strokeColor=#ff0000;align=center;verticalAlign=bottom;fontFamily=Helvetica;fontSize=11;fontColor=default;labelBackgroundColor=default;endArrow=open;endSize=8;" edge="1" parent="1" source="YR-cTzBqcfhOO2y_Lg_3-89" target="YR-cTzBqcfhOO2y_Lg_3-67">
          <mxGeometry relative="1" as="geometry">
            <Array as="points">
              <mxPoint x="620" y="1380" />
            </Array>
          </mxGeometry>
        </mxCell>
        <mxCell id="YR-cTzBqcfhOO2y_Lg_3-89" value="Messaggio di errore" style="rounded=1;whiteSpace=wrap;html=1;arcSize=40;fontColor=#000000;fillColor=#ffffc0;strokeColor=#ff0000;" vertex="1" parent="1">
          <mxGeometry x="820" y="1360" width="120" height="40" as="geometry" />
        </mxCell>
        <mxCell id="YR-cTzBqcfhOO2y_Lg_3-90" style="edgeStyle=orthogonalEdgeStyle;rounded=0;orthogonalLoop=1;jettySize=auto;html=1;strokeColor=#ff0000;align=center;verticalAlign=bottom;fontFamily=Helvetica;fontSize=11;fontColor=default;labelBackgroundColor=default;endArrow=open;endSize=8;" edge="1" parent="1" source="YR-cTzBqcfhOO2y_Lg_3-95" target="YR-cTzBqcfhOO2y_Lg_3-15">
          <mxGeometry relative="1" as="geometry">
            <Array as="points">
              <mxPoint x="290" y="270" />
            </Array>
          </mxGeometry>
        </mxCell>
        <mxCell id="YR-cTzBqcfhOO2y_Lg_3-91" style="edgeStyle=orthogonalEdgeStyle;shape=connector;rounded=0;orthogonalLoop=1;jettySize=auto;html=1;strokeColor=#ff0000;align=center;verticalAlign=bottom;fontFamily=Helvetica;fontSize=11;fontColor=default;labelBackgroundColor=default;endArrow=open;endSize=8;" edge="1" parent="1" source="YR-cTzBqcfhOO2y_Lg_3-95" target="YR-cTzBqcfhOO2y_Lg_3-100">
          <mxGeometry relative="1" as="geometry" />
        </mxCell>
        <mxCell id="YR-cTzBqcfhOO2y_Lg_3-92" value="click pulsante registrazione" style="edgeLabel;html=1;align=center;verticalAlign=middle;resizable=0;points=[];fontFamily=Helvetica;fontSize=11;fontColor=default;labelBackgroundColor=default;" vertex="1" connectable="0" parent="YR-cTzBqcfhOO2y_Lg_3-91">
          <mxGeometry x="-0.0966" relative="1" as="geometry">
            <mxPoint y="4" as="offset" />
          </mxGeometry>
        </mxCell>
        <mxCell id="YR-cTzBqcfhOO2y_Lg_3-93" style="edgeStyle=orthogonalEdgeStyle;shape=connector;rounded=0;orthogonalLoop=1;jettySize=auto;html=1;strokeColor=#ff0000;align=center;verticalAlign=bottom;fontFamily=Helvetica;fontSize=11;fontColor=default;labelBackgroundColor=default;endArrow=open;endSize=8;" edge="1" parent="1" source="YR-cTzBqcfhOO2y_Lg_3-95" target="YR-cTzBqcfhOO2y_Lg_3-119">
          <mxGeometry relative="1" as="geometry" />
        </mxCell>
        <mxCell id="YR-cTzBqcfhOO2y_Lg_3-94" value="click&lt;div&gt;pulsante&lt;/div&gt;&lt;div&gt;entra&lt;/div&gt;" style="edgeLabel;html=1;align=center;verticalAlign=middle;resizable=0;points=[];fontFamily=Helvetica;fontSize=11;fontColor=default;labelBackgroundColor=default;" vertex="1" connectable="0" parent="YR-cTzBqcfhOO2y_Lg_3-93">
          <mxGeometry x="0.035" y="1" relative="1" as="geometry">
            <mxPoint as="offset" />
          </mxGeometry>
        </mxCell>
        <mxCell id="YR-cTzBqcfhOO2y_Lg_3-95" value="Pagina di login" style="rounded=1;whiteSpace=wrap;html=1;arcSize=40;fontColor=#000000;fillColor=#ffffc0;strokeColor=#ff0000;" vertex="1" parent="1">
          <mxGeometry x="-40" y="240" width="120" height="40" as="geometry" />
        </mxCell>
        <mxCell id="YR-cTzBqcfhOO2y_Lg_3-96" style="edgeStyle=orthogonalEdgeStyle;shape=connector;rounded=0;orthogonalLoop=1;jettySize=auto;html=1;strokeColor=#ff0000;align=center;verticalAlign=bottom;fontFamily=Helvetica;fontSize=11;fontColor=default;labelBackgroundColor=default;endArrow=open;endSize=8;" edge="1" parent="1" source="YR-cTzBqcfhOO2y_Lg_3-100" target="YR-cTzBqcfhOO2y_Lg_3-95">
          <mxGeometry relative="1" as="geometry">
            <Array as="points">
              <mxPoint x="110" y="380" />
              <mxPoint x="110" y="300" />
              <mxPoint x="70" y="300" />
            </Array>
          </mxGeometry>
        </mxCell>
        <mxCell id="YR-cTzBqcfhOO2y_Lg_3-97" value="click link login" style="edgeLabel;html=1;align=center;verticalAlign=middle;resizable=0;points=[];fontFamily=Helvetica;fontSize=11;fontColor=default;labelBackgroundColor=default;" vertex="1" connectable="0" parent="YR-cTzBqcfhOO2y_Lg_3-96">
          <mxGeometry x="-0.2849" y="2" relative="1" as="geometry">
            <mxPoint as="offset" />
          </mxGeometry>
        </mxCell>
        <mxCell id="YR-cTzBqcfhOO2y_Lg_3-98" style="edgeStyle=orthogonalEdgeStyle;shape=connector;rounded=0;orthogonalLoop=1;jettySize=auto;html=1;strokeColor=#ff0000;align=center;verticalAlign=bottom;fontFamily=Helvetica;fontSize=11;fontColor=default;labelBackgroundColor=default;endArrow=open;endSize=8;" edge="1" parent="1" source="YR-cTzBqcfhOO2y_Lg_3-100" target="YR-cTzBqcfhOO2y_Lg_3-105">
          <mxGeometry relative="1" as="geometry" />
        </mxCell>
        <mxCell id="YR-cTzBqcfhOO2y_Lg_3-99" value="click&lt;div&gt;pulsante&lt;/div&gt;&lt;div&gt;entra&lt;/div&gt;" style="edgeLabel;html=1;align=center;verticalAlign=middle;resizable=0;points=[];fontFamily=Helvetica;fontSize=11;fontColor=default;labelBackgroundColor=default;" vertex="1" connectable="0" parent="YR-cTzBqcfhOO2y_Lg_3-98">
          <mxGeometry x="-0.065" y="1" relative="1" as="geometry">
            <mxPoint as="offset" />
          </mxGeometry>
        </mxCell>
        <mxCell id="YR-cTzBqcfhOO2y_Lg_3-100" value="Pagina di registrazione" style="rounded=1;whiteSpace=wrap;html=1;arcSize=40;fontColor=#000000;fillColor=#ffffc0;strokeColor=#ff0000;" vertex="1" parent="1">
          <mxGeometry x="-40" y="360" width="120" height="40" as="geometry" />
        </mxCell>
        <mxCell id="YR-cTzBqcfhOO2y_Lg_3-101" style="edgeStyle=orthogonalEdgeStyle;shape=connector;rounded=0;orthogonalLoop=1;jettySize=auto;html=1;strokeColor=#ff0000;align=center;verticalAlign=bottom;fontFamily=Helvetica;fontSize=11;fontColor=default;labelBackgroundColor=default;endArrow=open;endSize=8;" edge="1" parent="1" source="YR-cTzBqcfhOO2y_Lg_3-105" target="YR-cTzBqcfhOO2y_Lg_3-107">
          <mxGeometry relative="1" as="geometry">
            <Array as="points">
              <mxPoint x="-160" y="460" />
            </Array>
          </mxGeometry>
        </mxCell>
        <mxCell id="YR-cTzBqcfhOO2y_Lg_3-102" value="no" style="edgeLabel;html=1;align=center;verticalAlign=middle;resizable=0;points=[];fontFamily=Helvetica;fontSize=11;fontColor=default;labelBackgroundColor=default;" vertex="1" connectable="0" parent="YR-cTzBqcfhOO2y_Lg_3-101">
          <mxGeometry x="-0.9016" y="-1" relative="1" as="geometry">
            <mxPoint x="11" as="offset" />
          </mxGeometry>
        </mxCell>
        <mxCell id="YR-cTzBqcfhOO2y_Lg_3-103" style="edgeStyle=orthogonalEdgeStyle;shape=connector;rounded=0;orthogonalLoop=1;jettySize=auto;html=1;strokeColor=#ff0000;align=center;verticalAlign=bottom;fontFamily=Helvetica;fontSize=11;fontColor=default;labelBackgroundColor=default;endArrow=open;endSize=8;" edge="1" parent="1" source="YR-cTzBqcfhOO2y_Lg_3-105" target="YR-cTzBqcfhOO2y_Lg_3-170">
          <mxGeometry relative="1" as="geometry">
            <mxPoint x="-460" y="270" as="targetPoint" />
            <Array as="points">
              <mxPoint x="-300" y="380" />
              <mxPoint x="-300" y="340" />
            </Array>
          </mxGeometry>
        </mxCell>
        <mxCell id="YR-cTzBqcfhOO2y_Lg_3-104" value="sì" style="edgeLabel;html=1;align=center;verticalAlign=middle;resizable=0;points=[];fontFamily=Helvetica;fontSize=11;fontColor=default;labelBackgroundColor=default;" vertex="1" connectable="0" parent="YR-cTzBqcfhOO2y_Lg_3-103">
          <mxGeometry x="-0.7766" relative="1" as="geometry">
            <mxPoint x="27" y="-10" as="offset" />
          </mxGeometry>
        </mxCell>
        <mxCell id="YR-cTzBqcfhOO2y_Lg_3-105" value="dati corretti?" style="rhombus;whiteSpace=wrap;html=1;fontColor=#000000;fillColor=#ffffc0;strokeColor=#ff0000;fontFamily=Helvetica;fontSize=11;labelBackgroundColor=none;" vertex="1" parent="1">
          <mxGeometry x="-200" y="360" width="80" height="40" as="geometry" />
        </mxCell>
        <mxCell id="YR-cTzBqcfhOO2y_Lg_3-106" style="edgeStyle=orthogonalEdgeStyle;shape=connector;rounded=0;orthogonalLoop=1;jettySize=auto;html=1;strokeColor=#ff0000;align=center;verticalAlign=bottom;fontFamily=Helvetica;fontSize=11;fontColor=default;labelBackgroundColor=default;endArrow=open;endSize=8;" edge="1" parent="1" source="YR-cTzBqcfhOO2y_Lg_3-107" target="YR-cTzBqcfhOO2y_Lg_3-100">
          <mxGeometry relative="1" as="geometry" />
        </mxCell>
        <mxCell id="YR-cTzBqcfhOO2y_Lg_3-107" value="Messaggio di errore" style="rounded=1;whiteSpace=wrap;html=1;arcSize=40;fontColor=#000000;fillColor=#ffffc0;strokeColor=#ff0000;" vertex="1" parent="1">
          <mxGeometry x="-40" y="440" width="120" height="40" as="geometry" />
        </mxCell>
        <mxCell id="YR-cTzBqcfhOO2y_Lg_3-115" style="edgeStyle=orthogonalEdgeStyle;shape=connector;rounded=0;orthogonalLoop=1;jettySize=auto;html=1;strokeColor=#ff0000;align=center;verticalAlign=bottom;fontFamily=Helvetica;fontSize=11;fontColor=default;labelBackgroundColor=default;endArrow=open;endSize=8;" edge="1" parent="1" source="YR-cTzBqcfhOO2y_Lg_3-119" target="YR-cTzBqcfhOO2y_Lg_3-170">
          <mxGeometry relative="1" as="geometry">
            <mxPoint x="-410" y="260" as="targetPoint" />
          </mxGeometry>
        </mxCell>
        <mxCell id="YR-cTzBqcfhOO2y_Lg_3-116" value="sì" style="edgeLabel;html=1;align=center;verticalAlign=middle;resizable=0;points=[];fontFamily=Helvetica;fontSize=11;fontColor=default;labelBackgroundColor=default;" vertex="1" connectable="0" parent="YR-cTzBqcfhOO2y_Lg_3-115">
          <mxGeometry x="-0.8545" y="-2" relative="1" as="geometry">
            <mxPoint x="15" y="12" as="offset" />
          </mxGeometry>
        </mxCell>
        <mxCell id="YR-cTzBqcfhOO2y_Lg_3-117" style="edgeStyle=orthogonalEdgeStyle;shape=connector;rounded=0;orthogonalLoop=1;jettySize=auto;html=1;strokeColor=#ff0000;align=center;verticalAlign=bottom;fontFamily=Helvetica;fontSize=11;fontColor=default;labelBackgroundColor=default;endArrow=open;endSize=8;" edge="1" parent="1" source="YR-cTzBqcfhOO2y_Lg_3-119" target="YR-cTzBqcfhOO2y_Lg_3-121">
          <mxGeometry relative="1" as="geometry" />
        </mxCell>
        <mxCell id="YR-cTzBqcfhOO2y_Lg_3-118" value="no" style="edgeLabel;html=1;align=center;verticalAlign=middle;resizable=0;points=[];fontFamily=Helvetica;fontSize=11;fontColor=default;labelBackgroundColor=default;" vertex="1" connectable="0" parent="YR-cTzBqcfhOO2y_Lg_3-117">
          <mxGeometry x="0.0129" y="2" relative="1" as="geometry">
            <mxPoint x="12" y="10" as="offset" />
          </mxGeometry>
        </mxCell>
        <mxCell id="YR-cTzBqcfhOO2y_Lg_3-119" value="dati corretti?" style="rhombus;whiteSpace=wrap;html=1;fontColor=#000000;fillColor=#ffffc0;strokeColor=#ff0000;fontFamily=Helvetica;fontSize=11;labelBackgroundColor=none;" vertex="1" parent="1">
          <mxGeometry x="-200" y="240" width="80" height="40" as="geometry" />
        </mxCell>
        <mxCell id="YR-cTzBqcfhOO2y_Lg_3-120" style="edgeStyle=orthogonalEdgeStyle;shape=connector;rounded=0;orthogonalLoop=1;jettySize=auto;html=1;strokeColor=#ff0000;align=center;verticalAlign=bottom;fontFamily=Helvetica;fontSize=11;fontColor=default;labelBackgroundColor=default;endArrow=open;endSize=8;" edge="1" parent="1" source="YR-cTzBqcfhOO2y_Lg_3-121" target="YR-cTzBqcfhOO2y_Lg_3-95">
          <mxGeometry relative="1" as="geometry">
            <Array as="points">
              <mxPoint x="-80" y="180" />
              <mxPoint x="-80" y="220" />
              <mxPoint x="20" y="220" />
            </Array>
          </mxGeometry>
        </mxCell>
        <mxCell id="YR-cTzBqcfhOO2y_Lg_3-121" value="Messaggio di errore" style="rounded=1;whiteSpace=wrap;html=1;arcSize=40;fontColor=#000000;fillColor=#ffffc0;strokeColor=#ff0000;" vertex="1" parent="1">
          <mxGeometry x="-220" y="160" width="120" height="40" as="geometry" />
        </mxCell>
        <mxCell id="YR-cTzBqcfhOO2y_Lg_3-170" value="Pagina home (generata in base al ruolo)" style="rounded=1;whiteSpace=wrap;html=1;arcSize=40;fontColor=#000000;fillColor=#ffffc0;strokeColor=#ff0000;" vertex="1" parent="1">
          <mxGeometry x="-480" y="320" width="120" height="40" as="geometry" />
        </mxCell>
      </root>
    </mxGraphModel>
  </diagram>
</mxfile>
